<svg xmlns="http://www.w3.org/2000/svg" version="1.1" xmlns:xlink="http://www.w3.org/1999/xlink" width="200" height="200"><svg xmlns="http://www.w3.org/2000/svg" version="1.1" xmlns:xlink="http://www.w3.org/1999/xlink" width="200" height="200"><svg xmlns="http://www.w3.org/2000/svg" version="1.1" xmlns:xlink="http://www.w3.org/1999/xlink" viewBox="0 0 200 200"><rect width="200" height="200" fill="url('#gradient')"></rect><defs><linearGradient id="gradient" gradientTransform="rotate(45 0.5 0.5)"><stop offset="0%" stop-color="#3c4845"></stop><stop offset="100%" stop-color="#1b7974"></stop></linearGradient></defs><g><g fill="#3df383" transform="matrix(9.476606683804627,0,0,9.476606683804627,6.656791149926363,167.3780496536)" stroke="#c2d02d" stroke-width="0.2"><path d="M12.24-14.22L12.24-11.57L7.97-11.57L7.97 0L4.54 0L4.54-11.57L0.35-11.57L0.35-14.22L12.24-14.22ZM19.35-10.64L19.29-7.59L18.20-7.67Q16.65-7.67 16.21-6.69L16.21-6.69L16.21 0L12.92 0L12.92-10.57L16.01-10.57L16.11-9.21Q16.94-10.76 18.43-10.76L18.43-10.76Q18.96-10.76 19.35-10.64L19.35-10.64Z"></path></g></g></svg></svg><style>@media (prefers-color-scheme: light) { :root { filter: none; } }
@media (prefers-color-scheme: dark) { :root { filter: none; } }
</style></svg>